:SAMPLES-PER-SECOND 30
:FULLY-SPECIFIED
:DEGREES
244
root  -24.7907 38.5812 4.34875 -94.8031 -86.7781 90.1088
RightUpLeg  -18.9525 -5.54871 -2.83963
RightLeg  3.2361 0.183413 0.563512
RightFoot  -0.616943 -0.666649 7.47298
RightToes  -6.40286e-010 0 -3.6325e-017
Spine  5.82922 -1.07488 -0.23918
Spine1  8.08265 -0.579472 -2.60572
HEad  -18.5174 -1.66031 -1.27423
LeftShoulder1  -0.188049 4.01541 -30.6614
LeftArm  14.8772 -18.4929 -47.2507
LeftForeArm  16.7584 -21.2768 -4.74424
LeftHand  0.0202489 6.7862 4.19687
RightShoulder  -0.738663 -5.49587 30.3982
RightArm  16.867 -22.8944 41.8123
RightForeArm  24.5357 6.78089 7.62608
RightHand  0.0496728 4.31358 0.295698
LeftUpLeg  13.507 6.76768 -3.52772
LeftLeg  12.9974 -0.295862 0.0133493
LeftFoot  -21.4549 0.460737 3.74216
LeftToes  1.32783e-010 1.73515e-011 1.59258e-011
245
root  -26.0573 38.4026 4.324 -83.0024 -88.1012 78.2216
RightUpLeg  -20.759 -5.07932 -0.98929
RightLeg  9.61238 -0.535797 0.268066
RightFoot  4.4491 -0.115765 0.92016
RightToes  -6.40286e-010 0 -3.6325e-017
Spine  5.61716 -1.46088 1.64507
Spine1  8.61422 -1.14743 -1.53968
HEad  -18.7816 -0.978483 -1.70902
LeftShoulder1  -0.277469 4.24803 -31.0948
LeftArm  14.3013 -17.8753 -46.9089
LeftForeArm  17.2715 -24.9231 -4.31694
LeftHand  -0.00726181 6.20761 3.45562
RightShoulder  -0.724638 -5.47191 30.1343
RightArm  16.3082 -23.4169 41.0441
RightForeArm  26.0286 5.83478 7.33485
RightHand  0.114452 4.55783 1.09117
LeftUpLeg  15.2255 5.85411 -2.10821
LeftLeg  14.1303 -0.34599 0.414238
LeftFoot  -23.0087 0.379881 2.3747
LeftToes  1.32783e-010 1.73515e-011 1.59258e-011
246
root  -27.4471 38.1979 4.26996 -76.8245 -89.5886 71.4931
RightUpLeg  -21.6028 -4.38033 0.67896
RightLeg  15.5945 0.157424 -0.0286634
RightFoot  7.20883 0.0953654 -0.336482
RightToes  -6.40286e-010 0 -3.6325e-017
Spine  5.92845 -1.73694 3.31518
Spine1  8.43193 -1.59557 -0.529398
HEad  -18.7399 -0.181665 -2.07686
LeftShoulder1  -0.391271 4.5301 -32.0146
LeftArm  11.8494 -15.8858 -45.8829
LeftForeArm  19.2051 -28.902 -5.2089
LeftHand  0.00599037 6.07266 5.40332
RightShoulder  -0.73628 -5.5122 29.9835
RightArm  15.5658 -22.7467 40.1592
RightForeArm  27.9952 4.77394 6.92235
RightHand  0.225652 3.69767 2.59927
LeftUpLeg  16.419 3.73485 -0.806117
LeftLeg  17.7168 0.525186 0.661054
LeftFoot  -23.9749 0.0807616 -0.52952
LeftToes  1.32783e-010 1.73515e-011 1.59258e-011
247
root  -28.8208 38.0257 4.18681 82.3681 -88.7513 -87.9236
RightUpLeg  -22.4807 -2.41052 2.38033
RightLeg  22.0213 -1.27292 -0.79445
RightFoot  4.3175 0.376984 -2.54094
RightToes  -6.40286e-010 0 -3.6325e-017
Spine  5.96619 -1.9786 5.51972
Spine1  8.22071 -1.70924 -0.118976
HEad  -18.7331 0.0354429 -2.05154
LeftShoulder1  -0.410837 4.56792 -32.4648
LeftArm  9.75978 -12.6214 -45.2291
LeftForeArm  21.6392 -32.2182 -5.87035
LeftHand  0.000681899 6.07787 4.82795
RightShoulder  -0.774314 -5.60351 30.221
RightArm  13.793 -20.7179 39.8078
RightForeArm  26.8085 3.28726 6.30223
RightHand  0.0847546 3.35744 0.88598
LeftUpLeg  15.6882 2.0726 0.831929
LeftLeg  24.3169 0.225702 0.394477
LeftFoot  -23.5345 -0.410509 -5.2384
LeftToes  1.32783e-010 1.73515e-011 1.59258e-011
248
root  -30.0838 37.9587 4.04518 89.8609 -88.0041 -95.4369
RightUpLeg  -22.3781 -1.82463 3.39716
RightLeg  25.9758 -1.97933 -1.27911
RightFoot  1.41966 0.485695 -4.21848
RightToes  -6.40286e-010 0 -3.6325e-017
Spine  5.87316 -2.03602 5.99148
Spine1  8.25139 -1.83209 1.47269
HEad  -18.2372 0.151707 -1.97966
LeftShoulder1  -0.453093 4.6712 -32.6715
LeftArm  9.10119 -8.8545 -44.8663
LeftForeArm  22.9011 -34.8389 -6.46138
LeftHand  0.00109073 6.20486 4.57056
RightShoulder  -0.788444 -5.6453 30.1685
RightArm  12.3766 -17.9994 40.119
RightForeArm  24.9364 2.66203 5.84763
RightHand  0.0798208 3.39974 0.797317
LeftUpLeg  12.7571 1.84273 2.50503
LeftLeg  33.4143 -1.92192 -1.02639
LeftFoot  -19.0889 -0.573814 -10.6577
LeftToes  1.32783e-010 1.73515e-011 1.59258e-011
249
root  -31.2264 37.9747 3.9297 71.6302 -86.9779 -77.1077
RightUpLeg  -21.422 -2.33526 4.4741
RightLeg  27.9582 -2.42773 -1.63753
RightFoot  -1.51134 0.364231 -4.34883
RightToes  -6.40286e-010 0 -3.6325e-017
Spine  5.6623 -2.2799 7.83208
Spine1  8.18934 -1.7188 1.55719
HEad  -17.5517 -0.0781719 -1.66603
LeftShoulder1  -0.415182 4.57416 -32.6491
LeftArm  9.59331 -5.7795 -44.8909
LeftForeArm  23.8935 -35.4733 -6.57374
LeftHand  -0.0463762 4.87837 5.25884
RightShoulder  -0.802884 -5.70188 29.8882
RightArm  10.5466 -15.6571 41.3098
RightForeArm  21.6763 3.83768 5.31039
RightHand  0.00941239 3.16078 -0.0782551
LeftUpLeg  7.32621 0.784243 4.24253
LeftLeg  44.3372 -2.64218 -2.32594
LeftFoot  -8.91326 0.244366 -12.9093
LeftToes  1.32783e-010 1.73515e-011 1.59258e-011
250
root  -32.3407 38.0743 3.85014 69.1428 -86.0676 -74.6597
RightUpLeg  -19.8117 -2.86682 5.42342
RightLeg  28.8127 -2.47493 -1.72114
RightFoot  -3.71679 0.27456 -4.48548
RightToes  -6.40286e-010 0 -3.6325e-017
Spine  5.84826 -2.06537 9.98833
Spine1  7.77134 -1.05648 0.996106
HEad  -16.5573 -1.24624 -1.85465
LeftShoulder1  -0.428005 4.60031 -32.8918
LeftArm  10.7478 -3.17727 -45.1726
LeftForeArm  25.1052 -35.266 -6.44709
LeftHand  -0.0255839 5.34587 3.57372
RightShoulder  -0.889991 -5.94258 29.8949
RightArm  9.99409 -12.5293 41.9771
RightForeArm  17.2924 5.93127 5.29332
RightHand  -0.0648981 4.43246 -1.06335
LeftUpLeg  1.0251 0.14405 5.48306
LeftLeg  54.6657 -1.87202 -2.32844
LeftFoot  3.10935 1.15329 -9.04339
LeftToes  1.32783e-010 1.73515e-011 1.59258e-011
251
root  -33.4175 38.2462 3.77186 70.8959 -86.143 -76.8496
RightUpLeg  -17.4887 -3.12785 5.47392
RightLeg  28.9898 -2.27014 -1.61361
RightFoot  -5.67126 0.181304 -4.43365
RightToes  -6.40286e-010 0 -3.6325e-017
Spine  6.0444 -1.61292 11.2648
Spine1  8.06181 -0.0962113 0.16358
HEad  -16.4342 -2.34324 -1.72426
LeftShoulder1  -0.428654 4.59818 -33.0251
LeftArm  11.5273 -0.939354 -45.4087
LeftForeArm  25.243 -33.6863 -6.03072
LeftHand  -0.0423246 4.74135 3.79753
RightShoulder  -0.854409 -5.85738 29.6891
RightArm  10.5381 -8.42378 42.9082
RightForeArm  14.7582 8.34748 5.62968
RightHand  -0.0441519 4.52446 -0.798
LeftUpLeg  -3.63291 0.0835167 5.73409
LeftLeg  61.2668 -1.12141 -1.66316
LeftFoot  4.93381 0.978358 -6.99408
LeftToes  1.32783e-010 1.73515e-011 1.59258e-011
252
root  -34.5386 38.5548 3.68844 77.0031 -86.9252 -83.4006
RightUpLeg  -14.4211 -2.99416 4.85002
RightLeg  27.8506 -2.01803 -1.40468
RightFoot  -7.0668 0.119177 -4.46691
RightToes  -6.40286e-010 0 -3.6325e-017
Spine  6.11829 -0.976929 11.9199
Spine1  8.07446 1.02626 -1.33926
HEad  -15.8456 -2.96262 -1.68806
LeftShoulder1  -0.410306 4.55609 -32.8526
LeftArm  12.4311 1.44889 -45.4037
LeftForeArm  23.9754 -31.1091 -5.46389
LeftHand  -0.0229874 5.61124 3.64381
RightShoulder  -0.898012 -5.95572 30.0208
RightArm  13.1426 -3.41349 43.2048
RightForeArm  12.7386 11.0953 6.1487
RightHand  -0.0118606 4.42181 -0.396946
LeftUpLeg  -7.70117 0.738453 5.46814
LeftLeg  64.5947 -0.936622 -1.50419
LeftFoot  3.21008 0.735877 -5.9232
LeftToes  1.32783e-010 1.73515e-011 1.59258e-011
253
root  -35.6377 38.8149 3.63304 88.9274 -87.6654 -95.6495
RightUpLeg  -11.554 -3.03405 4.1227
RightLeg  26.737 -1.43096 -1.05888
RightFoot  -8.44686 0.0568054 -4.51137
RightToes  -6.40286e-010 0 -3.6325e-017
Spine  5.96667 -0.403756 12.2324
Spine1  8.08121 1.8772 -2.25127
HEad  -14.97 -2.94183 -1.9723
LeftShoulder1  -0.39183 4.50516 -32.9881
LeftArm  12.2606 4.32175 -44.9988
LeftForeArm  22.9145 -28.1091 -4.7756
LeftHand  -0.0152214 6.56238 1.67093
RightShoulder  -0.769164 -5.65723 29.0774
RightArm  15.0702 1.06829 44.7604
RightForeArm  11.0531 13.5698 5.96911
RightHand  -0.105731 5.48814 -1.45183
LeftUpLeg  -11.5281 1.28965 4.89159
LeftLeg  65.1682 -0.783335 -1.19363
LeftFoot  2.52258 0.542884 -4.58502
LeftToes  1.32783e-010 1.73515e-011 1.59258e-011
254
root  -36.7511 39.0506 3.59189 105.77 -88.0414 -112.783
RightUpLeg  -8.5991 -3.74093 3.51554
RightLeg  25.3373 -0.364978 -0.605901
RightFoot  -9.71846 -2.60757e-006 -4.59875
RightToes  -6.40286e-010 0 -3.6325e-017
Spine  6.03053 0.0176715 13.2881
Spine1  7.57582 2.73135 -4.1052
HEad  -14.0677 -2.89392 -2.5667
LeftShoulder1  -0.401271 4.52665 -33.0888
LeftArm  13.0234 6.40237 -44.1791
LeftForeArm  20.43 -23.7226 -4.33417
LeftHand  -0.0210015 7.09288 1.11767
RightShoulder  -0.732485 -5.59158 28.4357
RightArm  16.5922 5.40465 46.0459
RightForeArm  10.1746 15.9909 5.4291
RightHand  -0.0764592 5.28754 -1.1309
LeftUpLeg  -14.6702 1.67962 4.4396
LeftLeg  62.9644 -1.00902 -1.53317
LeftFoot  0.772843 0.389708 -3.71279
LeftToes  1.32783e-010 1.73515e-011 1.59258e-011
